<svg width="24" height="24" viewBox="0 0 24 24" fill="none" xmlns="http://www.w3.org/2000/svg">
<g clip-path="url(#clip0_819_6948)">
<path d="M15.4116 13.6262C15.5154 13.5571 15.6349 13.515 15.7591 13.5037C15.8834 13.4924 16.0085 13.5123 16.1231 13.5615L20.5444 15.5425C20.6934 15.6061 20.8177 15.7164 20.8989 15.8566C20.98 15.9969 21.0135 16.1597 20.9944 16.3206C20.8487 17.4091 20.3127 18.4076 19.486 19.1305C18.6593 19.8534 17.5982 20.2514 16.5 20.2506C13.1185 20.2506 9.87548 18.9073 7.48439 16.5162C5.0933 14.1251 3.75 10.8821 3.75 7.50059C3.74916 6.40241 4.1472 5.34129 4.87009 4.51459C5.59298 3.68789 6.59152 3.15187 7.68 3.00621C7.84091 2.9871 8.00368 3.02061 8.14395 3.10173C8.28422 3.18285 8.39444 3.30722 8.45813 3.45621L10.4391 7.88121C10.4877 7.99487 10.5076 8.11879 10.4968 8.24195C10.486 8.36512 10.4449 8.4837 10.3772 8.58715L8.37375 10.9693C8.30269 11.0766 8.26066 11.2004 8.25179 11.3288C8.24291 11.4571 8.2675 11.5855 8.32313 11.7015C9.09844 13.2887 10.7391 14.9097 12.3309 15.6775C12.4475 15.7329 12.5766 15.7569 12.7053 15.7472C12.834 15.7375 12.958 15.6944 13.065 15.6222L15.4116 13.6262Z" stroke="#53555A" stroke-width="1.5007" stroke-linecap="round" stroke-linejoin="round"/>
</g>
<defs>
<clipPath id="clip0_819_6948">
<rect width="24" height="24" fill="white"/>
</clipPath>
</defs>
</svg>
